<?xml version="1.0" standalone="no"?>
<!DOCTYPE svg PUBLIC "-//W3C//DTD SVG 20010904//EN"
 "http://www.w3.org/TR/2001/REC-SVG-20010904/DTD/svg10.dtd">
<svg version="1.0" xmlns="http://www.w3.org/2000/svg"
 width="80.000000pt" height="79.000000pt" viewBox="0 0 80.000000 79.000000"
 preserveAspectRatio="xMidYMid meet">

<g transform="translate(0.000000,79.000000) scale(0.100000,-0.100000)"
fill="#000000" stroke="none">
<path d="M355 784 c-111 -27 -182 -95 -210 -199 -12 -48 -13 -71 -5 -111 19
-92 90 -176 168 -199 19 -6 22 -3 22 24 0 28 -3 31 -29 31 -22 0 -37 10 -61
40 -18 23 -30 43 -27 46 8 9 48 -16 42 -26 -3 -5 4 -11 15 -15 11 -4 18 -10
16 -14 -3 -4 6 -7 19 -7 13 0 21 4 19 8 -3 4 -1 8 4 8 5 0 12 9 15 20 4 16 0
20 -19 20 -13 0 -38 13 -55 28 -36 32 -50 103 -28 143 7 13 12 35 11 49 -4 43
11 55 48 40 17 -7 62 -13 100 -13 38 0 83 6 100 13 37 15 52 3 48 -40 -1 -14
4 -36 11 -49 22 -40 8 -111 -28 -143 -17 -15 -42 -28 -56 -28 -22 0 -24 -2
-15 -26 6 -14 10 -46 10 -70 0 -42 2 -45 23 -39 77 23 148 107 167 199 24 116
-45 245 -157 291 -38 16 -118 26 -148 19z"/>
<path d="M31 191 c-11 -11 -23 -36 -26 -55 -18 -96 41 -154 133 -130 19 6 22
13 22 60 l0 54 -35 0 c-28 0 -35 -4 -35 -20 0 -11 5 -20 10 -20 6 0 10 -9 10
-20 0 -23 -29 -27 -48 -8 -16 16 -15 93 1 106 6 6 28 12 47 14 24 2 36 9 38
21 5 26 -90 25 -117 -2z"/>
<path d="M355 197 c-3 -7 -5 -54 -3 -103 3 -81 5 -89 23 -89 16 0 21 8 23 43
3 39 5 42 33 42 28 0 29 -2 29 -45 0 -38 3 -45 20 -45 19 0 20 7 20 105 0 98
-1 105 -20 105 -17 0 -20 -7 -20 -40 0 -38 -2 -40 -29 -40 -27 0 -30 3 -33 37
-3 39 -32 59 -43 30z"/>
<path d="M670 107 l0 -103 52 1 c48 0 54 3 66 28 28 58 -8 128 -58 112 -17 -6
-20 -2 -20 29 0 29 -4 36 -20 36 -19 0 -20 -7 -20 -103z m80 -32 c0 -28 -4
-35 -20 -35 -16 0 -20 7 -20 35 0 28 4 35 20 35 16 0 20 -7 20 -35z"/>
<path d="M183 184 c-7 -20 17 -37 34 -23 15 13 6 39 -13 39 -8 0 -17 -7 -21
-16z"/>
<path d="M260 160 c0 -11 -4 -20 -10 -20 -5 0 -10 -7 -10 -15 0 -8 5 -15 10
-15 6 0 10 -18 10 -39 0 -45 22 -74 53 -69 28 4 34 28 8 35 -29 7 -30 63 -1
70 11 3 20 12 20 19 0 8 -9 14 -20 14 -13 0 -20 7 -20 20 0 13 -7 20 -20 20
-13 0 -20 -7 -20 -20z"/>
<path d="M182 73 c2 -55 6 -68 21 -71 15 -3 17 5 17 67 0 65 -2 71 -20 71 -19
0 -21 -5 -18 -67z"/>
<path d="M520 81 c0 -71 10 -81 76 -77 l49 2 3 67 c3 66 2 67 -23 67 -23 0
-25 -3 -25 -50 0 -43 -3 -50 -20 -50 -17 0 -20 7 -20 50 0 43 -3 50 -20 50
-18 0 -20 -7 -20 -59z"/>
</g>
</svg>
